<?xml version="1.0" standalone="no"?>
<!DOCTYPE svg PUBLIC "-//W3C//DTD SVG 20010904//EN"
 "http://www.w3.org/TR/2001/REC-SVG-20010904/DTD/svg10.dtd">
<svg version="1.0" xmlns="http://www.w3.org/2000/svg"
 width="860.000000pt" height="1045.000000pt" viewBox="0 0 860.000000 1045.000000"
 preserveAspectRatio="xMidYMid meet">

<g transform="translate(0.000000,1045.000000) scale(0.100000,-0.100000)"
fill="#000000" stroke="none">
<path d="M3410 10025 c0 -3 9 -22 20 -42 13 -24 20 -57 20 -90 0 -58 12 -73
39 -49 26 24 41 20 109 -24 34 -21 76 -47 93 -55 48 -26 251 -172 382 -278
215 -173 360 -317 442 -441 88 -132 176 -230 325 -361 61 -53 123 -115 137
-138 15 -23 70 -128 123 -233 160 -314 181 -347 212 -328 6 4 8 28 6 56 -6 59
10 60 32 2 20 -53 77 -154 166 -295 41 -64 74 -123 74 -130 0 -8 -7 -23 -15
-33 -24 -32 -17 -60 31 -126 106 -145 109 -172 34 -316 -28 -53 -49 -101 -48
-106 2 -5 25 -12 52 -14 82 -6 234 -97 308 -183 59 -69 67 -131 23 -174 -37
-38 -103 -7 -199 92 -46 47 -51 49 -67 35 -16 -15 -16 -18 16 -60 48 -63 51
-79 21 -115 -34 -40 -40 -66 -34 -149 4 -57 13 -82 53 -156 45 -84 173 -263
208 -293 10 -7 17 -21 17 -31 0 -30 36 -51 107 -62 37 -5 77 -12 89 -14 21 -4
41 -57 94 -259 12 -44 30 -95 41 -113 37 -63 18 -103 -73 -154 -32 -19 -38
-27 -38 -56 0 -25 5 -35 20 -39 23 -6 23 -5 9 -36 -14 -31 10 -79 80 -161 61
-72 109 -161 152 -284 35 -101 74 -168 169 -289 40 -50 57 -80 51 -86 -12 -12
-3 -92 15 -128 7 -14 33 -44 58 -67 35 -32 59 -70 96 -150 68 -144 75 -156
136 -237 63 -85 142 -240 228 -452 216 -531 298 -696 484 -983 110 -169 238
-324 383 -465 121 -117 174 -159 189 -150 20 12 10 43 -33 101 -115 159 -124
189 -92 313 19 72 16 104 -11 99 -9 -2 -21 6 -27 17 -6 11 -21 36 -33 55 -16
26 -23 59 -28 130 -3 52 -9 132 -12 176 l-6 81 37 42 37 41 -55 0 c-45 0 -58
4 -67 19 -14 27 -13 117 2 159 12 31 11 35 -12 52 l-25 19 24 18 c14 10 29 21
35 25 5 3 -2 19 -17 37 -27 32 -43 69 -34 78 3 2 31 -1 61 -8 31 -7 58 -10 61
-7 5 5 -93 158 -121 189 -14 16 -32 19 -100 19 -45 0 -90 3 -98 6 -9 3 -32 35
-52 71 -27 47 -35 71 -31 92 8 39 -10 60 -84 96 -71 34 -67 25 -88 186 -16
126 -37 185 -81 233 l-38 41 -4 106 -3 106 -42 46 c-45 49 -55 75 -79 212 -22
123 -21 205 4 305 38 154 38 154 11 147 -13 -3 -39 -11 -57 -18 -29 -12 -34
-12 -55 9 -27 27 -30 98 -8 211 l15 73 -25 19 c-13 10 -35 21 -49 24 -41 10
-98 55 -115 91 -13 27 -14 41 -5 74 11 40 10 42 -40 108 -27 37 -70 108 -94
157 -41 84 -114 299 -151 442 -8 34 -24 82 -35 107 -31 74 -112 305 -130 375
-87 333 -124 462 -140 494 -11 21 -20 43 -20 49 0 6 -7 20 -17 30 -9 10 -19
34 -22 54 -5 32 -11 38 -51 53 -33 12 -53 28 -76 63 -35 52 -69 147 -57 158 4
4 26 13 47 20 37 12 38 14 20 27 -10 8 -63 37 -118 65 -81 42 -103 58 -122 92
-14 23 -45 75 -69 116 l-44 75 24 8 c14 5 25 15 25 22 0 16 -38 48 -79 65 -21
8 -49 40 -85 94 -161 240 -538 582 -1226 1112 -258 199 -622 469 -675 500
-109 63 -435 175 -435 149z"/>
<path d="M326 8994 c-11 -29 -7 -33 87 -88 50 -30 134 -89 186 -130 234 -187
534 -467 518 -483 -4 -4 -34 0 -67 9 -64 17 -70 16 -70 -17 0 -16 13 -28 52
-46 162 -75 551 -442 675 -637 20 -30 50 -101 68 -156 19 -56 45 -127 58 -158
31 -69 129 -236 174 -297 l33 -44 -20 -22 c-18 -19 -18 -23 -5 -42 8 -12 27
-23 42 -25 36 -4 38 -17 8 -52 l-25 -29 31 -35 c18 -20 38 -50 45 -68 18 -42
17 -112 0 -143 -12 -22 -11 -32 7 -79 18 -48 19 -60 9 -116 -16 -84 -15 -128
2 -152 13 -16 18 -17 35 -7 18 11 28 7 83 -30 86 -57 96 -63 151 -88 26 -12
47 -24 47 -27 0 -3 -8 -14 -17 -24 -16 -18 -16 -22 7 -65 23 -43 34 -51 105
-77 15 -6 2 -14 -59 -33 -53 -18 -84 -23 -94 -17 -8 5 -29 36 -46 67 -36 67
-87 107 -111 87 -19 -16 -12 -42 26 -94 37 -51 36 -80 -2 -142 -18 -27 -34
-67 -36 -89 -7 -55 21 -166 59 -239 41 -76 183 -221 293 -298 45 -31 88 -65
97 -75 10 -11 26 -75 41 -165 26 -150 41 -188 99 -266 31 -42 32 -44 14 -57
-17 -13 -17 -18 -6 -46 13 -30 12 -32 -23 -64 -26 -24 -37 -42 -37 -62 0 -37
77 -152 170 -255 62 -68 74 -88 81 -127 16 -101 190 -468 237 -499 39 -26 120
-111 127 -134 4 -12 -3 -43 -20 -80 -15 -33 -25 -60 -23 -61 1 -1 21 -11 42
-22 34 -17 44 -31 69 -90 16 -38 33 -77 38 -85 5 -8 13 -25 18 -36 5 -12 23
-31 40 -43 63 -45 173 -238 340 -598 39 -84 71 -155 71 -157 0 -2 20 -46 44
-97 24 -52 70 -150 101 -219 32 -69 68 -141 80 -160 12 -19 28 -51 36 -70 40
-99 260 -469 365 -615 83 -114 219 -270 263 -300 62 -43 73 -17 46 111 -15 74
-114 366 -159 469 -27 63 -33 123 -16 156 9 16 22 19 75 19 36 0 65 3 65 8 0
4 -19 20 -42 37 -92 65 -106 82 -113 140 -6 43 -4 58 9 70 23 23 20 34 -12 52
-46 26 -76 155 -52 219 7 19 7 30 -1 40 -9 10 -5 20 14 44 28 32 27 58 -4 86
-27 25 -23 41 11 48 44 8 38 37 -23 126 -58 83 -70 88 -188 89 -51 1 -61 5
-100 40 l-44 39 0 82 c0 69 -3 84 -19 96 -11 8 -25 14 -32 14 -7 0 -28 18 -47
40 -30 35 -35 50 -40 108 -7 84 -53 196 -112 272 -32 42 -45 69 -50 105 -10
74 -60 265 -89 337 -48 123 -51 142 -50 358 l2 205 -31 20 c-17 11 -43 45 -58
75 -25 48 -29 67 -29 141 0 84 0 85 -36 120 -19 18 -60 78 -91 133 -58 102
-181 355 -215 441 -11 27 -35 74 -54 105 -38 62 -84 191 -149 420 -75 267
-175 672 -175 715 0 56 -128 316 -208 422 l-23 32 47 3 47 3 -52 63 c-45 54
-56 62 -86 62 -45 0 -82 23 -134 84 -81 93 -210 300 -197 313 3 4 38 5 77 4
78 -2 89 11 33 39 -16 9 -78 45 -139 80 -169 100 -255 191 -624 659 -15 19
-35 34 -44 34 -9 0 -29 16 -44 36 -142 188 -416 387 -893 648 -80 44 -154 84
-165 90 -72 40 -268 133 -279 133 -8 0 -17 -7 -20 -16z"/>
<path d="M2342 8878 c-19 -19 -16 -25 53 -89 35 -33 78 -81 95 -107 28 -41 31
-54 28 -98 -3 -39 -12 -61 -33 -85 l-28 -34 97 -3 c103 -3 112 -9 75 -48 l-20
-22 78 -42 c141 -77 152 -90 116 -150 l-17 -29 50 -53 c28 -29 62 -74 77 -99
27 -46 72 -203 63 -218 -3 -5 -17 -6 -30 -4 -24 5 -25 4 -16 -28 6 -19 10 -35
10 -37 0 -2 20 -12 44 -23 38 -16 52 -18 91 -9 26 6 64 19 85 30 22 11 48 20
58 20 49 0 421 -312 459 -385 9 -16 24 -76 34 -134 18 -105 26 -121 65 -121
12 0 26 -6 31 -12 6 -7 20 -88 33 -179 24 -181 23 -187 -28 -241 -13 -15 -22
-33 -19 -41 6 -15 50 -27 98 -27 26 0 29 -3 29 -32 0 -18 -11 -57 -25 -87 -14
-30 -24 -55 -23 -56 12 -10 70 -35 81 -35 8 0 46 -16 86 -36 77 -39 89 -60 47
-87 -23 -15 -23 -17 -10 -69 18 -69 18 -138 -1 -175 -13 -27 -13 -39 -1 -106
33 -171 110 -350 237 -549 38 -59 78 -126 89 -148 21 -41 21 -42 -18 -52 -8
-2 8 -31 43 -78 154 -204 275 -401 275 -448 0 -11 -7 -25 -15 -32 -16 -13 -20
-76 -7 -96 4 -7 25 -20 47 -30 39 -19 40 -22 77 -139 34 -109 44 -128 99 -195
251 -307 342 -468 364 -643 7 -51 27 -84 162 -260 74 -97 84 -114 101 -182 58
-228 117 -327 317 -534 101 -105 168 -161 190 -161 23 0 25 31 5 71 -35 68
-59 159 -81 304 -11 77 -26 147 -33 155 -6 8 -35 43 -64 76 l-52 61 -25 156
c-14 86 -25 165 -25 177 0 11 -20 51 -45 88 l-46 67 72 65 71 65 -65 99 c-90
135 -154 265 -186 377 -22 77 -31 94 -47 94 -18 0 -19 -7 -15 -152 2 -83 0
-156 -3 -162 -4 -6 -54 52 -117 136 -139 187 -206 323 -225 455 -6 47 -6 47
40 79 25 18 46 36 46 40 0 27 -15 39 -50 39 -47 0 -56 11 -30 35 20 18 19 18
-11 72 -29 50 -31 61 -27 122 6 74 32 142 72 184 14 15 26 34 26 42 0 20 -40
45 -72 45 -18 0 -33 8 -44 25 -16 24 -15 27 1 45 10 11 33 24 51 30 19 7 34
16 34 20 0 5 -27 24 -60 42 -33 18 -60 36 -60 40 0 8 66 52 107 71 23 10 28 8
52 -19 14 -17 35 -44 47 -60 29 -40 50 -21 56 51 4 42 13 67 41 108 63 92 52
133 -99 359 -120 179 -122 181 -224 201 -46 9 -87 20 -91 25 -3 4 -9 37 -13
75 -6 63 -5 69 19 93 14 14 25 27 25 29 0 3 -17 20 -37 39 -36 32 -37 35 -21
53 14 16 15 21 3 43 -8 14 -14 28 -15 33 0 11 51 -3 86 -24 44 -26 64 -24 64
6 0 17 -12 32 -45 55 -63 43 -75 65 -75 133 l0 58 -100 105 c-85 90 -107 120
-144 197 -35 75 -57 106 -117 166 -41 41 -108 98 -150 127 l-76 54 10 38 c10
37 8 43 -40 123 -27 46 -62 105 -77 132 l-27 47 -69 0 -69 0 -107 123 c-179
204 -397 414 -545 523 -216 162 -474 313 -714 418 -82 36 -349 136 -363 136
-4 0 -13 -5 -20 -12z"/>
</g>
</svg>
